# xmcd
#
# Track frame offsets:
#	150
#	14888
#	32938
#	48708
#	62018
#	78160
#	93532
#	103610
#	120911
#	136082
#	152445
#
# Disc length: 2260 seconds
#
# Revision: 2
# Processed by: cddbd v1.4PL0 Copyright (c) Steve Scherf et al.
# Submitted via: audiograbber 1.81.01
#
DISCID=8808d20b
DTITLE=Gruppo Italiano - I Grandi Successi Originali cd1
DYEAR=1900
DGENRE=Pop
TTITLE0=Anni Ruggenti
TTITLE1=L'Estate stà finendo
TTITLE2=Tropicana
TTITLE3=Sono bugiarda
TTITLE4=Warrnambool
TTITLE5=A chì
TTITLE6=Che colpa abbiamo noi
TTITLE7=Boulevard
TTITLE8=Il treno del caffè
TTITLE9=Noi cannibali
TTITLE10=Innamorarsi
EXTD=
EXTT0=
EXTT1=
EXTT2=
EXTT3=
EXTT4=
EXTT5=
EXTT6=
EXTT7=
EXTT8=
EXTT9=
EXTT10=
PLAYORDER=
